<?xml version="1.0" encoding="UTF-8"?> <!-- Generator: Adobe Illustrator 25.4.1, SVG Export Plug-In . SVG Version: 6.00 Build 0) --> <svg xmlns="http://www.w3.org/2000/svg" xmlns:xlink="http://www.w3.org/1999/xlink" version="1.1" id="Capa_1" x="0px" y="0px" viewBox="0 0 470 1008" style="enable-background:new 0 0 470 1008;" xml:space="preserve"> <style type="text/css"> .st0{fill:#FFFFFF;} </style> <path class="st0" d="M292,248c-10,0-15-5.3-15-16c0-4,1.5-7.5,4.5-10.5s6.5-4.8,10.5-5.5h162c4.7,0.7,8.5,2.5,11.5,5.5 s4.5,6.7,4.5,11s-1.5,8-4.5,11s-6.8,4.5-11.5,4.5H292z M454,330c10.7,0.7,16,6,16,16c0,6-2,10.2-6,12.5s-7.3,3.5-10,3.5H292 c-10-0.7-15-6-15-16c0-4,1.5-7.7,4.5-11s6.5-5,10.5-5H454z M454,444c4.7,0,8.5,1.5,11.5,4.5s4.5,6.7,4.5,11s-1.5,8.2-4.5,11.5 s-6.8,5-11.5,5H292c-10-0.7-15-6-15-16c0-4.7,1.5-8.5,4.5-11.5S288,444,292,444H454z M454,557c4.7,0.7,8.5,2.5,11.5,5.5 s4.5,6.7,4.5,11s-1.5,8-4.5,11s-6.8,4.5-11.5,4.5H292c-4,0-7.5-1.5-10.5-4.5s-4.5-6.7-4.5-11s1.5-8,4.5-11s6.5-4.8,10.5-5.5H454z M188,699c15.3,10,28.3,25,39,45s16,39,16,57c0,34-11.8,62.8-35.5,86.5s-52.3,35.5-86,35.5s-62.3-11.8-86-35.5S0,835,0,801 c0-18,5.3-37,16-57s23.7-35,39-45V157c0-18.7,6.5-34.5,19.5-47.5s28.7-19.5,47-19.5s34,6.5,47,19.5S188,138.3,188,157V699z M87,407 h69V157c0-13.3-5.7-23.3-17-30c-5.3-3.3-12-5-20-5s-15.3,3.3-22,10c-6.7,6.7-10,15-10,25V407z M148,867c14-8,26-20.5,36-37.5 s15-30.8,15-41.5c0-16.7-5.2-25-15.5-25s-15.5,5.5-15.5,16.5s-3.5,22.3-10.5,34s-14.2,19.7-21.5,24s-11,8.7-11,13s0.7,7.5,2,9.5 c2.7,5.3,6.2,8,10.5,8S145.3,867.7,148,867z"></path> </svg> 