<?xml version="1.0" encoding="UTF-8"?> <!-- Generator: Adobe Illustrator 25.4.1, SVG Export Plug-In . SVG Version: 6.00 Build 0) --> <svg xmlns="http://www.w3.org/2000/svg" xmlns:xlink="http://www.w3.org/1999/xlink" version="1.1" id="Capa_1" x="0px" y="0px" viewBox="0 0 852 1008" style="enable-background:new 0 0 852 1008;" xml:space="preserve"> <style type="text/css"> .st0{fill:#FFFFFF;} </style> <path class="st0" d="M295,362h2l1-2l207-171c18-15.3,34.8-19.3,50.5-12s23.5,23,23.5,47v568c0,24-7.7,39.7-23,47 c-4.7,2.7-11.3,4-20,4s-19-5.3-31-16L298,656c-3.3-3.3-5-7.2-5-11.5s1.5-8,4.5-11S304,629,308,629s7.3,1,10,3l206,171 c8.7,7.3,14.8,10.2,18.5,8.5s5.5-8.2,5.5-19.5V224c0-11.3-1.8-17.8-5.5-19.5s-9.8,1.2-18.5,8.5L318,384c-2,2-4.7,3-8,3v172 c0,4-1.5,7.5-4.5,10.5S299,574,295,574s-7.7-1.5-11-4.5s-5-6.5-5-10.5V378C279,367.3,284.3,362,295,362z M662.5,422 c3.7-2,9.8-1.5,18.5,1.5s18.7,9.8,30,20.5c24,22.7,36,48.7,36,78c0,20-6.3,39.5-19,58.5s-28,32.2-46,39.5c-6.7,2.7-12,2-16-2 s-6-8.7-6-14s4.8-10,14.5-14s19-12.8,28-26.5S716,536,716,522c0-14.7-5-29-15-43s-22.3-23.3-37-28c-4-1.3-6.8-4-8.5-8s-1.8-8-0.5-12 S658.8,424,662.5,422z M756,345c30.7,19.3,54.5,44.7,71.5,76S853,486,853,522v1c0,31.3-9.5,64.3-28.5,99s-41.8,60.7-68.5,78 c-2,1.3-4.8,2-8.5,2s-7.2-1.5-10.5-4.5s-5-6.8-5-11.5s2.3-8.7,7-12c23.3-14.7,43-36.8,59-66.5s24-58.2,24-85.5 c0-37.3-13.7-74.3-41-111c-12.7-17.3-26.3-30.7-41-40c-4.7-3.3-7-7.3-7-12s1.5-8.5,4.5-11.5s6.3-4.5,10-4.5S754,343.7,756,345z M211,361c7.3-7.3,14.3-7.3,21,0c3.3,3.3,5,7,5,11v272c0,4-1.5,7.7-4.5,11s-6.7,5-11,5s-7.8-1.7-10.5-5c-3.3,2.7-7,4-11,4H59 c-16.7,0-29-4-37-12C7.3,632.3,0,617,0,601V415c0-16,5.7-29.7,17-41s25.3-17,42-17h141C204,357,207.7,358.3,211,361z M59,629h141 c2,0,4,0.3,6,1V386c-2,1.3-4,2-6,2H59c-8,0-14.7,2.7-20,8s-8,11.7-8,19v186c0,7.3,2.7,13.8,8,19.5S51,629,59,629z"></path> </svg> 