<?xml version="1.0" encoding="UTF-8"?> <!-- Generator: Adobe Illustrator 25.4.1, SVG Export Plug-In . SVG Version: 6.00 Build 0) --> <svg xmlns="http://www.w3.org/2000/svg" xmlns:xlink="http://www.w3.org/1999/xlink" version="1.1" id="Capa_1" x="0px" y="0px" viewBox="0 0 1165 1008" style="enable-background:new 0 0 1165 1008;" xml:space="preserve"> <style type="text/css"> .st0{fill:#FFFFFF;} </style> <path class="st0" d="M1106,457c16.7,0,30.8,5.8,42.5,17.5s17.5,25.8,17.5,42.5v241c-0.7,20-9,36-25,48c-10,8-21.7,12-35,12H964 c-14.7,0-27.3-4.7-38-14c-2,0.7-3.7,1-5,1H245c-2,0-4-0.3-6-1c-10.7,9.3-23,14-37,14H60c-16.7,0-30.8-5.8-42.5-17.5S0,774.7,0,758 V517c0-16.7,5.8-30.8,17.5-42.5S43.3,457,60,457h47c2.7-74,30.7-137,84-189s117-78,191-78h404c74,0,137.7,26,191,78 c53.3,52,81.3,115,84,189H1106z M382,223c-65.3,0-121.5,22.8-168.5,68.5S142,392.3,140,457h62c16,0,29.8,5.8,41.5,17.5 S261,500.3,261,517v70h643v-70c0-16.7,5.8-30.8,17.5-42.5S947.3,457,964,457h64c-1.3-42.7-13-81.8-35-117.5s-51.3-64-88-85 S828.7,223,786,223H382z M261,758c0,4.7-0.7,9.3-2,14h647c-1.3-4.7-2-9.3-2-14V619H261V758z M229,758V517c0-10.7-3.3-17.8-10-21.5 s-12.3-5.5-17-5.5H60c-7.3,0-13.7,2.7-19,8s-8,11.7-8,19v241c0,7.3,2.7,13.7,8,19s11.7,8,19,8h142c7.3,0,13.7-2.7,19-8 S229,765.3,229,758z M1133,758V517c0-10.7-3.3-17.8-10-21.5s-12.3-5.5-17-5.5H964c-7.3,0-13.7,2.7-19,8s-8,11.7-8,19v241 c0,7.3,2.7,13.7,8,19s11.7,8,19,8h142c7.3,0,13.7-2.7,19-8S1133,765.3,1133,758z M411,437c-3.3,0-6.7-1.7-10-5s-5-7.3-5-12v-23 c0-4,1.7-7.7,5-11s7.2-5,11.5-5s8.2,1.7,11.5,5s5,7,5,11v23C429,431.3,423,437,411,437z M755.5,437c-3,0-5.8-1-8.5-3 c-5.3-2.7-8-7.3-8-14v-23c0-4.7,1.7-8.5,5-11.5s7.2-4.5,11.5-4.5s8.2,1.5,11.5,4.5s5,6.8,5,11.5v23c0,6.7-2,11.2-6,13.5 S758.5,437,755.5,437z"></path> </svg> 