<?xml version="1.0" encoding="UTF-8"?> <!-- Generator: Adobe Illustrator 25.4.1, SVG Export Plug-In . SVG Version: 6.00 Build 0) --> <svg xmlns="http://www.w3.org/2000/svg" xmlns:xlink="http://www.w3.org/1999/xlink" version="1.1" id="Capa_1" x="0px" y="0px" viewBox="0 0 852 1008" style="enable-background:new 0 0 852 1008;" xml:space="preserve"> <style type="text/css"> .st0{fill:#FFFFFF;} </style> <g> <path class="st0" d="M749.6,321.7c-4.9-29.9-29.8-50.6-60.6-53.8c-55.2-5.7-110.4-12.4-165.6-18.6c-57.7-6.5-115.4-13-173.1-19.5 c-27.9-3.2-55.8-6.2-83.7-9.7c-37.9-4.7-68.7,19.9-72.7,58c-0.4,3.8-0.8,7.7-1.3,11.5c-1.1,9.2,6.1,17.2,15.3,17.2h0 c7.8,0,14.3-5.8,15.3-13.5c0.6-5,1.3-9.9,2-14.8c2.9-19.3,18.2-29.8,37.5-27.5c60.8,7.1,121.7,14,182.5,21 c56.6,6.6,113.3,13.2,169.9,19.8c25.6,3,51.2,5.6,76.7,9.2c17.7,2.5,28.8,17.1,26.8,34.8c-4.5,41.1-9.5,82.2-14.3,123.4 c-4.9,42.2-9.8,84.3-14.7,126.5c-2.8,24.3-5.7,48.7-8.5,73c-1.4,11.7-8.4,18.8-20.1,23.4v-8.1c0-88.1,0.1-176.3,0-264.4 c0-28.5-12.5-49.9-37.9-63.2c-10.1-5.3-21-7.3-32.4-7.3C472.7,339,354.5,339,236.3,339v0h-52.7c-5,0.1-9.7,0.3-14.5-0.1 c-39.6-3-68,29.2-67.9,67.8c0.1,28.3,0,56.6,0,85c0,77.4,0.1,154.7,0,232.1c0,20.6,6.3,38.1,22.6,51.4c12,9.8,26,13.3,41.3,13.3 c77.1-0.1,154.3,0,231.4,0c64.7,0,129.3-0.1,194,0.1c22.1,0,41-6.8,55.9-23.6c10.8-12.2,15.5-26.5,14.7-42.6 c-0.3-5.6,0.9-8.3,7.1-9.9c28.2-7.7,43.2-27.8,46.8-60.7c6.2-55.6,12.6-111.2,18.8-166.9c5.2-46.4,10.4-92.8,15.7-139.2 c0.2-1.4,0.8-2.8,1.2-4.2v-17.8C750.3,323.1,749.7,322.4,749.6,321.7z M629.8,587.6c0,44.4,0,88.8,0,133.1 c0,21.7-11.5,34.2-33.2,35.9c-2.1,0.2-4.2,0.2-6.3,0.2c-141.2,0-282.4,0-423.5,0c-4.2,0-8.5-0.1-12.6-1 c-11.8-2.7-20.8-13.3-21.1-25.5c-0.4-19.4-0.2-38.9,0-58.3c0-1.9,1.4-4.5,3-5.6c39.7-29.4,79.5-58.8,119.5-87.8 c16.6-12,33.8-10.3,50.3,4c27,23.7,53.8,47.7,80.9,71.2c22.7,19.7,48.5,25.7,77.2,15c4.9-1.8,9.5-4.5,14.1-7.1 c48.3-27.8,96.5-55.8,144.7-83.7c1.9-1.1,3.9-2.2,7.1-4V587.6z M624.6,540c-54.6,31.6-109.1,63.5-163.7,95.2 c-19.5,11.3-36.1,9.7-52.9-5c-26.7-23.4-53.3-46.9-79.9-70.4c-28.6-25.2-62.8-26.8-93.9-4.3c-32.3,23.4-64.6,46.9-96.9,70.4 c-1,0.7-2.1,1.4-4.4,3v-6.7c0-71.6,0-143.3,0-214.9c0-11,2.1-21.5,10.8-28.6c4.7-3.9,11.4-5.6,17.4-7.9c2-0.8,4.6-0.2,6.9-0.2h421 c26.3,0,40.8,14.5,40.8,40.7c0,39.7-0.1,79.5,0.1,119.2C629.9,535.1,628.7,537.7,624.6,540z"></path> <path class="st0" d="M430,420.2c-36.1,0.1-66.2,30.3-66.1,66.4c0.1,36.2,30.2,66.1,66.4,66c36.5-0.1,66.1-29.9,66-66.3 C496.2,450,466.2,420.1,430,420.2z M430.3,521.1c-19,0.1-34.7-15.5-34.7-34.5c0-19,15.5-34.6,34.5-34.7c19-0.1,34.7,15.5,34.8,34.5 C465,505.2,449.2,521,430.3,521.1z"></path> </g> </svg> 