<?xml version="1.0" encoding="UTF-8"?> <!-- Generator: Adobe Illustrator 25.4.1, SVG Export Plug-In . SVG Version: 6.00 Build 0) --> <svg xmlns="http://www.w3.org/2000/svg" xmlns:xlink="http://www.w3.org/1999/xlink" version="1.1" id="Capa_1" x="0px" y="0px" viewBox="0 0 1197 1008" style="enable-background:new 0 0 1197 1008;" xml:space="preserve"> <style type="text/css"> .st0{fill:#FFFFFF;} </style> <path class="st0" d="M1191,452c4,3.3,6,7.3,6,12c0,12-5.3,18-16,18c-3.3,0-6.7-1.3-10-4l-58-43v460c0,20.7-7.3,38.2-22,52.5 s-32,21.5-52,21.5H158c-28,0-49-12.3-63-37c-6.7-11.3-10-23.7-10-37V435l-59,43c-2.7,2-6.3,3-11,3s-8.3-1.7-11-5s-4-7.3-4-12 s2.3-8.7,7-12L543,56c15.3-11.3,33.8-17,55.5-17S639,44.7,655,56L1191,452z M1080,427c0-4.7,1.7-8.7,5-12L635,82 c-10-6.7-22.2-10-36.5-10S572,75.3,562,82L112,415c3.3,3.3,5,7.3,5,12v468c0,16,7,28,21,36c6,3.3,12.7,5,20,5h881c11.3,0,21-4,29-12 s12-17.7,12-29V427z M534,273c0-2,3.5-6.2,10.5-12.5c7-6.3,17.5-13.2,31.5-20.5c32-16,61-18.7,87-8l98,33c10,3.3,16,13.3,18,30 c0,2.7,1,4,3,4s4-0.3,6-1c10-8,20.3-10,31-6l32,10c3.3,1.3,5,3.7,5,7c0,0.7-0.3,1.7-1,3l-23,70c-1.3,3.3-3.7,5-7,5 c-0.7,0-1.7-0.3-3-1l-31-10c-11.3-3.3-18.3-12.7-21-28c-0.7-1.3-4-3-10-5s-12.8-1-20.5,3s-12.8,10-15.5,18l-9,26 c-1.3,4.7-4.3,6.3-9,5l-64-22c-3.3-0.7-5-2.7-5-6v-3l10-28c3.3-10,2.3-19.8-3-29.5s-14.8-17.7-28.5-24s-38.2-7.2-73.5-2.5h-1 C536.3,280,534,277.7,534,273z M658,245c-28-10.7-58.7-4.7-92,18c46.7-2.7,77.3,10,92,38c6.7,12.7,7.7,25.7,3,39l-7,22l50,17l6-19 c4-12.7,11.7-21.7,23-27s22.3-6.5,33-3.5s16.7,8.3,18,16s5.3,13.2,12,16.5l24,8l2-7c0.7,0,1-0.3,1-1l16-48l-24-8 c-6-3.3-12.2-2.3-18.5,3s-13,6.5-20,3.5s-11-9-12-18S760.7,280,756,278l-97-32L658,245z M632,387c1.3-3.3,4-5,8-5s6,2.7,6,8v2 l-30,77c-3.3-2.7-8-4.3-14-5L632,387z M645,468c-3.3-0.7-5-3.2-5-7.5s2.3-6.5,7-6.5h3l24,9l7-24l-24-9c-4.7-1.3-6.3-4-5-8s4-6,8-6 c0.7,0,1.3,0.3,2,1l23,7l5-17c0.7-3.3,3.2-5,7.5-5s6.5,2.3,6.5,7v2l-6,23v2.5l-0.5,1L696,438l-38,131c-2.7-6.7-5.3-14-8-22l9-31 l-22-8l-1-1c-0.7-2-2.3-6.7-5-14c1.3-0.7,2.3-1,3-1s1.3,0.3,2,1l27,9l7-25L645,468z M341,615l1,7c-2,24.7,5.5,47.8,22.5,69.5 S404.3,729,433,739c3.3,1.3,5,4.2,5,8.5s-2.7,6.5-8,6.5h-2c-32-11.3-57.3-29.2-76-53.5S325,650,327,622c-0.7-2-1-4-1-6 c-1.3-20.7,7-45.7,25-75c2-2.7,4.3-4,7-4c4.7,0,7,2.7,7,8c0,1.3-0.3,2.7-1,4C348.7,573.7,341,595.7,341,615z M389,515 c-1.3,1.3-3.3,2-6,2c-4.7,0-7-2.3-7-7c0-2,0.5-3.7,1.5-5s2.3-3,4-5s4.3-6,8-12s6.2-12,7.5-18c4.7-16.7,4.3-31.7-1-45l2-9l11-2 c4,2.7,7.7,5.5,11,8.5s7.8,10.2,13.5,21.5s9.2,24.3,10.5,39c20.7-52,5.7-98.3-45-139l-2-12l10-4c18,4.7,40,14.7,66,30c2.7,2,4,4,4,6 s-0.8,4.3-2.5,7s-6.2,1.8-13.5-2.5s-17-9.2-29-14.5c21.3,23.3,33.3,49.3,36,78s-5.7,57.3-25,86l-17,24l3-29c2.7-30.7-1.7-54.7-13-72 C418,467,409,491.7,389,515z M559,471c-13.3-29.3-35.3-56.3-66-81c-2-1.3-3-3.3-3-6c0-4.7,2.3-7,7-7c2.7,0,7.7,3,15,9 c27.3,23.3,47.3,49.7,60,79c0.7,1.3,1,2.3,1,3c0,5.3-2.7,8-8,8C562.3,476,560.3,474.3,559,471z M482,573c2,21.3-1.2,38.7-9.5,52 S456,646.7,448,650c-14,6-19.8,16.7-17.5,32s11.5,25.3,27.5,30c2.7,0.7,4.3,2.3,5,5c-0.7,2.7-1.7,5.3-3,8c-2,1.3-4,1.7-6,1 c-22-6-34.7-20.3-38-43c-1.3-8,0-16.7,4-26s11.3-16.3,22-21c1.3,0,4-2,8-6c17.3-16.7,21.7-40.7,13-72l-4-17l16,9 c21.3,12,38,30.7,50,56c-4.7,8.7-7.7,14.3-9,17C508,602.3,496.7,585.7,482,573z M641,584c14,34,31.7,65.5,53,94.5s32,58.2,32,87.5 s-5.7,53.7-17,73s-26.7,34.7-46,46s-40.3,17-63,17c-34.7,0-64.3-12.3-89-37c-24.7-24.7-37-54.5-37-89.5s12-69.2,36-102.5 s48-85.7,72-157c0.7-0.7,1.3-1.8,2-3.5c0.7-1.7,1.7-5.2,3-10.5c4-11.3,8-17,12-17c5.3,0,9.3,4.3,12,13c9.3,30,16.5,51.3,21.5,64 S640.3,582,641,584z M544.5,873c17,10,38.2,15,63.5,15s48.8-11,70.5-33s32.5-48.8,32.5-80.5s-11-62.8-33-93.5 c-16.7-22.7-28.2-41.2-34.5-55.5S633.3,602.3,632,599c-8.7-19.3-16-38.5-22-57.5s-9.3-29.2-10-30.5c-0.7,2-2,5.7-4,11 c-10,29.3-20,56-30,80l-4,9c-13.3,28.7-26.7,52.3-40,71l-12,19c-14,24.7-21,48.5-21,71.5s5,43,15,60S527.5,863,544.5,873z M753,759 c-4.7,0-7-2-7-6c0-4.7,1.7-7.7,5-9c13.3-4,24.7-12.5,34-25.5s14-28.3,14-46s-8-37.3-24-59S743.7,558,729,512c-16.7,48-33,83-49,105 c-4,3.3-7.2,4.2-9.5,2.5S667,616,667,614s0.3-3.5,1-4.5s1.5-2.3,2.5-4s1.8-2.8,2.5-3.5c13.3-20.7,24.5-44.2,33.5-70.5 c9-26.3,14.3-40.8,16-43.5s4-4,7-4s5,1.2,6,3.5s3.2,8.2,6.5,17.5c14.7,46,30.3,80.3,47,103s25,44.2,25,64.5s-5.8,38.5-17.5,54.5 S771,753.3,755,758C754.3,758.7,753.7,759,753,759z"></path> </svg> 