<?xml version="1.0" encoding="UTF-8"?> <!-- Generator: Adobe Illustrator 25.4.1, SVG Export Plug-In . SVG Version: 6.00 Build 0) --> <svg xmlns="http://www.w3.org/2000/svg" xmlns:xlink="http://www.w3.org/1999/xlink" version="1.1" id="Capa_1" x="0px" y="0px" viewBox="0 0 1061 1008" style="enable-background:new 0 0 1061 1008;" xml:space="preserve"> <style type="text/css"> .st0{fill:#FFFFFF;} </style> <path class="st0" d="M536,298c3.3,0,6.7,1.7,10,5s5,7.3,5,12v421c0,16.7-5.8,30.8-17.5,42.5S507.7,796,491,796H60 c-16.7,0-30.8-5.8-42.5-17.5S0,752.7,0,736V315c0-4.7,1.7-8.5,5-11.5s7.2-4.5,11.5-4.5s8,1.5,11,4.5s4.8,6.8,5.5,11.5v122 c13.3,1.3,27.5,6.5,42.5,15.5s29.7,13.5,44,13.5s30.2-5,47.5-15s36.2-15,56.5-15s39.2,5,56.5,15s33.2,15,47.5,15s30-5,47-15 s35.7-15,56-15s38.2,4.3,53.5,13s26.7,13.7,34,15V315C518,303.7,524,298,536,298z M491,763c10.7,0,17.8-3.2,21.5-9.5 c3.7-6.3,5.5-12.2,5.5-17.5V498c-13.3-2-27.7-7.5-43-16.5S444.8,468,430.5,468s-30.2,5.2-47.5,15.5S347,499,327,499 s-38.7-5.2-56-15.5S237.8,468,223.5,468s-30.2,5.2-47.5,15.5S140,499,120,499s-37.7-4.5-53-13.5S40.3,471.3,33,470v266 c0,7.3,2.5,13.7,7.5,19s11.5,8,19.5,8H491z M1002,428c16,0,29.8,5.8,41.5,17.5s17.5,25.8,17.5,42.5v12c0,16.7-5.8,30.8-17.5,42.5 S1018,560,1002,560H595c-4,0-7.7-1.7-11-5s-5-7.2-5-11.5s1.7-8.2,5-11.5s7-5,11-5h76v-66h-76c-4,0-7.7-1.7-11-5s-5-7.2-5-11.5 s1.7-8.2,5-11.5s7-5,11-5H1002z M1029,500v-12c0-10.7-3.3-17.8-10-21.5c-6.7-3.7-12.3-5.5-17-5.5H703v66h299c7.3,0,13.7-2.7,19-8 C1026.3,513.7,1029,507.3,1029,500z M139,316c-3.3,0-6.7-1.7-10-5c-3.3-3.3-5-7-5-11v-72c0.7-4,2.5-7.5,5.5-10.5s6.3-4.5,10-4.5 s6.8,0.7,9.5,2c5.3,2.7,8,7,8,13v72C157,310.7,151,316,139,316z M274.5,311c-3,3.3-6.5,5-10.5,5s-7-0.7-9-2c-5.3-3.3-8-8-8-14v-72 c0-4,1.5-7.5,4.5-10.5s6.7-4.5,11-4.5s8.2,1.5,11.5,4.5s5,6.5,5,10.5v72C279,304,277.5,307.7,274.5,311z M383,316 c-3.3,0-6.5-1.7-9.5-5s-4.5-7-4.5-11v-72c0-4,1.5-7.5,4.5-10.5s6-4.5,9-4.5s5.3,0.2,7,0.5s3.2,1,4.5,2s2.7,2.2,4,3.5 c2,2.7,3,5.7,3,9v72C401,310.7,395,316,383,316z"></path> </svg> 