<?xml version="1.0" encoding="UTF-8"?> <svg xmlns="http://www.w3.org/2000/svg" viewBox="0 0 852 1008"><path fill="currentColor" d="M295 362h2l1-2 207-171q27-23 50.5-12t23.5 47v568q0 36-23 47-7 4-20 4t-31-16L298 656q-5-5-5-11.5t4.5-11T308 629t10 3l206 171q13 11 18.5 8.5T548 792V224q0-17-5.5-19.5T524 213L318 384q-3 3-8 3v172q0 6-4.5 10.5T295 574t-11-4.5-5-10.5V378q0-16 16-16zm367.5 60q5.5-3 18.5 1.5t30 20.5q36 34 36 78 0 30-19 58.5T682 620q-10 4-16-2t-6-14 14.5-14 28-26.5T716 522q0-22-15-43t-37-28q-6-2-8.5-8t-.5-12 7.5-9zm93.5-77q46 29 71.5 76T853 522v1q0 47-28.5 99T756 700q-3 2-8.5 2t-10.5-4.5-5-11.5 7-12q35-22 59-66.5t24-85.5q0-56-41-111-19-26-41-40-7-5-7-12t4.5-11.5 10-4.5 8.5 2zm-545 16q11-11 21 0 5 5 5 11v272q0 6-4.5 11t-11 5-10.5-5q-5 4-11 4H59q-25 0-37-12-22-22-22-46V415q0-24 17-41t42-17h141q6 0 11 4zM59 629h141q3 0 6 1V386q-3 2-6 2H59q-12 0-20 8t-8 19v186q0 11 8 19.5t20 8.5z"></path></svg> 