<?xml version="1.0" encoding="UTF-8"?> <!-- Generator: Adobe Illustrator 25.4.1, SVG Export Plug-In . SVG Version: 6.00 Build 0) --> <svg xmlns="http://www.w3.org/2000/svg" xmlns:xlink="http://www.w3.org/1999/xlink" version="1.1" id="Capa_1" x="0px" y="0px" viewBox="0 0 714 1008" style="enable-background:new 0 0 714 1008;" xml:space="preserve"> <style type="text/css"> .st0{fill:#FFFFFF;} </style> <path class="st0" d="M195,350c-4,0-7.5-1.5-10.5-4.5s-4.5-6.8-4.5-11.5c0-45.3,6.7-74.7,20-88c13.3-13.3,41.3-20.3,84-21v-31 c0-10.7,4.7-20.3,14-29c18.7-15.3,46-23,82-23h44c26.7,0,49.3,9.5,68,28.5s28,41.8,28,68.5v319c0,6-1.8,10-5.5,12c-3.7,2-7.3,3-11,3 s-7-1.5-10-4.5S489,562,489,558V239c0-18.7-6.3-34.3-19-47s-28-19-46-19h-44c-30.7,0-51.7,5.3-63,16c-2,2-3,3.7-3,5v31 c42.7,0.7,70.7,7.7,84,21c13.3,13.3,20,42.7,20,88c0,4.7-1.5,8.5-4.5,11.5S407,350,403,350H195z M345.5,257c-9-0.7-28.8-1-59.5-1 s-50.7,3-60,9s-14.3,24-15,54h176c0-16.7-0.8-28.8-2.5-36.5s-6.3-13.7-14-18S354.5,257.7,345.5,257z M195,399c0-4,1.2-7.2,3.5-9.5 s5.3-3.5,9-3.5s6.8,1.2,9.5,3.5s4,5.5,4,9.5v21c0,4-1.3,7.2-4,9.5s-5.5,3.5-8.5,3.5s-5.5-0.3-7.5-1c-4-2.7-6-6.7-6-12V399z M287,399 c0-4,1.3-7.2,4-9.5s5.7-3.5,9-3.5s6.3,1.2,9,3.5s4,5.5,4,9.5v21c0,4-1.3,7.2-4,9.5s-5.7,3.5-9,3.5s-6.3-1.2-9-3.5s-4-5.5-4-9.5V399z M369,399c0-4,1.2-7.2,3.5-9.5s5.3-3.5,9-3.5s6.8,1.2,9.5,3.5s4,5.5,4,9.5v21c0,5.3-1.7,8.8-5,10.5s-6.5,2.5-9.5,2.5s-5.7-1.2-8-3.5 S369,424,369,420V399z M236,485c0-3.3,1.2-6.3,3.5-9s5.3-4,9-4s6.8,1.3,9.5,4c2.7,2.7,4,5.7,4,9v21c0,4-1.3,7.3-4,10 c-2.7,2.7-5.8,4-9.5,4s-6.7-1.3-9-4s-3.5-6-3.5-10V485z M328,485c0-3.3,1.2-6.3,3.5-9s5.3-4,9-4s6.8,1.3,9.5,4s4,5.7,4,9v21 c0,5.3-1.7,9-5,11s-6.5,3-9.5,3s-5.7-1.3-8-4s-3.5-6-3.5-10V485z M672,597c14,0,25.3,5.7,34,17c5.3,7.3,8,16.2,8,26.5s-4,19.7-12,28 S684,681,672,681h-11l-5,11c-9.3,20.7-18.7,41-28,61l-19,42c-4.7,10-11.7,19-21,27l24,13c5.3,3.3,8,7.7,8,13s-1.5,9.7-4.5,13 s-6.3,5-10,5s-6.8-0.7-9.5-2l-43-23h-1c-6.7,1.3-12.7,2-18,2H191c-9.3,0-19.3-2-30-6c-1.3,2-3,3.3-5,4l-43,23 c-7.3,4-13.2,3.7-17.5-1s-6.5-9.7-6.5-15s3-9.7,9-13l34-18c-7.3-6.7-12.7-14-16-22l-18-37l-28-60l-8-17H42 c-11.3,0-21.2-4.2-29.5-12.5S0,650.2,0,638.5S4.2,617,12.5,609s18.2-12,29.5-12H672z M599,740c10-22.7,18.7-42.3,26-59H99l47,101 c3.3,7.3,9.5,14,18.5,20s17.8,9,26.5,9h343c8.7,0,17.5-3,26.5-9s15.2-12.7,18.5-20L599,740z M672,648c6-0.7,9-3.8,9-9.5 s-3-8.5-9-8.5H42c-6,0-9,2.8-9,8.5s3,8.8,9,9.5H672z"></path> </svg> 