<?xml version="1.0" encoding="UTF-8"?> <!-- Generator: Adobe Illustrator 25.4.1, SVG Export Plug-In . SVG Version: 6.00 Build 0) --> <svg xmlns="http://www.w3.org/2000/svg" xmlns:xlink="http://www.w3.org/1999/xlink" version="1.1" id="Capa_1" x="0px" y="0px" viewBox="0 0 686 1008" style="enable-background:new 0 0 686 1008;" xml:space="preserve"> <style type="text/css"> .st0{fill:#FFFFFF;} </style> <path class="st0" d="M34,670v16c-3.3,53.3,13.3,103.5,50,150.5S169.7,918,231,940c6.7,2.7,10,6.8,10,12.5s-1.7,10.2-5,13.5 s-6.5,5-9.5,5s-5.2-0.3-6.5-1c-68-23.3-122.3-61.5-163-114.5S-2,746,2,686c-1.3-15.3-1.5-28.3-0.5-39s6-29.2,15-55.5 S38.3,538.3,55,511c3.3-5.3,7.7-8,13-8s9.5,1.5,12.5,4.5S85,514,85,518s-0.7,7.3-2,10C50.3,581.3,34,628.7,34,670z M141,449 c-2,2-4.2,4.3-6.5,7s-5.7,4-10,4c-4.3,0-8.2-1.7-11.5-5s-5-7-5-11s1-7.2,3-9.5s4-4.8,6-7.5s5.3-7.5,10-14.5c4.7-7,9-14.2,13-21.5 s8-16.2,12-26.5s6.7-20.8,8-31.5c4.7-24,2-48-8-72l5-21l22-3c30,17.3,52,48,66,92c5.3,17.3,9,36,11,56c44.7-110.7,13.3-209.7-94-297 l-4-4l-5-25l23-9c44.7,13.3,92.3,35.3,143,66c4.7,3.3,7,7.7,7,13c0,5.3-1.5,9.7-4.5,13s-6.3,5-10,5s-12-4-25-12s-32.2-17.7-57.5-29 c46.7,50,72.8,106.2,78.5,168.5S294.7,399,252,461l-35,52l6-63c6-66-3.7-117.3-29-154C198.7,348,181,399,141,449z M503,360 c-29.3-66.7-77-125.3-143-176c-4-3.3-6-7.5-6-12.5s1.7-9,5-12s7-4.5,11-4.5c4.7,0,15.7,7,33,21c58.7,50,102,107,130,171 c0.7,2,1,4.7,1,8s-1.5,6.5-4.5,9.5S522,369,516,369S505.7,366,503,360z M521,408c0-10.7,5.3-16,16-16c8.7,0,14,4,16,12 c16.7,63.3,18,130.3,4,201c20.7-30,31.7-83.7,33-161l15-18l20,9c16,22.7,30.5,54.8,43.5,96.5S688,609.7,688,641 c0,4.7-1.7,8.5-5,11.5s-7.2,4.5-11.5,4.5s-8.2-1.5-11.5-4.5s-5-6.8-5-11.5c0-45.3-11.7-94-35-146c-6.7,82-27.7,133.7-63,155 c-7.3,4.7-15,7.7-23,9l-25,4l7-25c22-81.3,23.7-156.7,5-226V408z M668,684c8.7,2,13,7,13,15c0,1.3-0.3,2.7-1,4 c-19.3,79.3-58.3,146.3-117,201c-32.7,30.7-69.3,53-110,67c-1.3,0.7-3.7,1-7,1s-6.5-1.7-9.5-5s-4.5-8-4.5-14s3.7-10.3,11-13 c28-10,54-24.3,78-43s43-37.3,57-56s26.7-39,38-61c15.3-30.7,26.3-59,33-85c2-8,7.3-12,16-12C666.3,683,667.3,683.3,668,684z M434.5,659.5c11.7,27,19,50,22,69s4.8,32.7,5.5,41s-1,22.8-5,43.5c-8,42.7-30,72.7-66,90c-2,0.7-4.7,1-8,1s-6.7-1.5-10-4.5 s-5-7.3-5-13s3-9.8,9-12.5c26.7-12.7,42.7-35.7,48-69c4-20.7,4.7-38,2-52c-10.7-73.3-40.7-131-90-173c7.3,62.7-8,111.3-46,146 c-12,11.3-22,18.5-30,21.5s-15,8.3-21,16s-9.7,14.8-11,21.5c-3.3,18-4.3,27.7-3,29c5.3,34.7,25.3,56.7,60,66c8,2,12,6.3,12,13 c0,12.7-5.3,19-16,19c-1.3,0-2.7-0.3-4-1c-48.7-12.7-76.7-43.7-84-93c-2-18,1.2-37,9.5-57s23.8-35,46.5-45c4.7-1.3,10.7-5.7,18-13 c37.3-36,47-87.7,29-155l-10-38l34,19c23.3,13.3,45.2,31.7,65.5,55S422.8,632.5,434.5,659.5z"></path> </svg> 