<?xml version="1.0" encoding="UTF-8"?> <svg xmlns="http://www.w3.org/2000/svg" viewBox="-1 0 686 1008"><path fill="currentColor" d="M33 670v16q-5 80 50 150.5T230 940q10 4 10 12.5t-5 13.5-9.5 5-6.5-1Q117 935 56 855.5T1 686q-2-23-.5-39t15-55.5T54 511q5-8 13-8t12.5 4.5T84 518t-2 10q-49 80-49 142zm107-221q-3 3-6.5 7t-10 4-11.5-5-5-11 3-9.5 6-7.5 10-14.5 13-21.5 12-26.5 8-31.5q7-36-8-72l5-21 22-3q45 26 66 92 8 26 11 56 67-166-94-297l-4-4-5-25 23-9q67 20 143 66 7 5 7 13t-4.5 13-10 5-25-12-57.5-29q70 75 78.5 168.5T251 461l-35 52 6-63q9-99-29-154 7 78-53 153zm362-89q-44-100-143-176-6-5-6-12.5t5-12 11-4.5q7 0 33 21 88 75 130 171 1 3 1 8t-4.5 9.5T515 369t-13-9zm18 48q0-16 16-16 13 0 16 12 25 95 4 201 31-45 33-161l15-18 20 9q24 34 43.5 96.5T687 641q0 7-5 11.5t-11.5 4.5-11.5-4.5-5-11.5q0-68-35-146-10 123-63 155-11 7-23 9l-25 4 7-25q33-122 5-226v-4zm147 276q13 3 13 15 0 2-1 4-29 119-117 201-49 46-110 67-2 1-7 1t-9.5-5-4.5-14 11-13q42-15 78-43t57-56 38-61q23-46 33-85 3-12 16-12 2 0 3 1zm-233.5-24.5q17.5 40.5 22 69t5.5 41-5 43.5q-12 64-66 90-3 1-8 1t-10-4.5-5-13 9-12.5q40-19 48-69 6-31 2-52-16-110-90-173 11 94-46 146-18 17-30 21.5t-21 16-11 21.5q-5 27-3 29 8 52 60 66 12 3 12 13 0 19-16 19-2 0-4-1-73-19-84-93-3-27 9.5-57t46.5-45q7-2 18-13 56-54 29-155l-10-38 34 19q35 20 65.5 55t48 75.5z"></path></svg> 