<?xml version="1.0" encoding="UTF-8"?> <!-- Generator: Adobe Illustrator 25.4.1, SVG Export Plug-In . SVG Version: 6.00 Build 0) --> <svg xmlns="http://www.w3.org/2000/svg" xmlns:xlink="http://www.w3.org/1999/xlink" version="1.1" id="Capa_1" x="0px" y="0px" viewBox="0 0 1149 1008" style="enable-background:new 0 0 1149 1008;" xml:space="preserve"> <style type="text/css"> .st0{fill:#FFFFFF;} </style> <path class="st0" d="M584,122c69.3,0,133.3,17,192,51s105,80.3,139,139s51,122.7,51,192c0,52-10.2,101.5-30.5,148.5S888,740,854,774 s-74.7,61.2-122,81.5S635.3,886,584,886c-69.3,0-133.3-17-192-51s-105-80.3-139-139s-51-122.7-51-192s17-133.3,51-192 s80.3-105,139-139S514.7,122,584,122z M584,853c63.3,0,121.8-15.5,175.5-46.5s96-73.3,127-127S933,571.3,933,516 s-9.2-104.5-27.5-147.5S862.3,288.3,831,257s-68.5-56.2-111.5-74.5S627.3,155,572,155s-109.8,15.5-163.5,46.5s-96,73.3-127,127 S235,440.7,235,504s15.5,121.8,46.5,175.5s73.3,96,127,127S520.7,853,584,853z M584,274c63.3,0,117.5,22.5,162.5,67.5 S814,440.7,814,504s-22.5,117.5-67.5,162.5S647.3,734,584,734s-117.5-22.5-162.5-67.5S354,567.3,354,504s22.5-117.5,67.5-162.5 S520.7,274,584,274z M584,701c54,0,100.3-19.3,139-58s58-85,58-139c0-35.3-8.8-68.2-26.5-98.5s-41.7-54.3-72-72S619.3,307,584,307 c-54.7,0-101.2,19.3-139.5,58S387,450,387,504c0,35.3,8.8,68.2,26.5,98.5s41.7,54.3,72,72C515.8,692.2,548.7,701,584,701z M1150,192 v649c0,10-3.7,18.7-11,26s-16.3,11.3-27,12h-26c-10,0-18.5-3.7-25.5-11s-10.5-13.7-10.5-19v-9l13-247c0.7-10.7-1-18.8-5-24.5 s-7.5-11.3-10.5-17s-7.3-16.2-13-31.5c-5.7-15.3-10.3-31.5-14-48.5c-3.7-17-5.3-37.5-5-61.5s3.5-47.7,9.5-71 c14-55.3,46.3-108.3,97-159c3.3-3.3,6.7-5,10-5C1144,175,1150,180.7,1150,192z M1082,842c0,2.7,1.3,4,4,4h26c3.3,0,5-2,5-6V234 c-24.7,30-42.5,61.2-53.5,93.5s-16.7,60-17,83s2.8,45.8,9.5,68.5c7.3,28.7,16,50.7,26,66s14.3,32,13,50l-13,246V842z M142,187.5 c3.3-3,6.8-4.5,10.5-4.5s6.8,0.7,9.5,2c5.3,3.3,8,8,8,14v169c0,14.7-6.3,25.7-19,33c-6,3.3-12.3,5-19,5H38c-10.7,0-19.7-3.7-27-11 S0,378.7,0,368V199c0-4.7,1.7-8.5,5-11.5s7.2-4.5,11.5-4.5s8.2,1.5,11.5,4.5s5,6.8,5,11.5v169c0,3.3,1.7,5,5,5h31V192 c0-10.7,5.3-16,16-16c4,0,7.7,1.5,11,4.5s5,6.8,5,11.5v181h31c3.3,0,5-1.7,5-5V199C137,194.3,138.7,190.5,142,187.5z M100,462 c3.3-3.3,6.8-5,10.5-5s6.8,0.7,9.5,2c5.3,3.3,8,8.3,8,15v381c0,6-2,10.2-6,12.5s-7.3,3.5-10,3.5H58c-6,0-10.2-2-12.5-6 s-3.5-7.3-3.5-10V474c0-4.7,1.5-8.7,4.5-12s6.8-5,11.5-5s8.7,1.7,12,5s5,7.3,5,12v364h20V474C95,469.3,96.7,465.3,100,462z"></path> </svg> 