<?xml version="1.0" encoding="UTF-8"?> <svg xmlns="http://www.w3.org/2000/svg" viewBox="0 0 470 1008"><path fill="currentColor" d="M292 248q-15 0-15-16 0-6 4.5-10.5T292 216h162q7 1 11.5 5.5t4.5 11-4.5 11T454 248H292zm162 82q16 1 16 16 0 9-6 12.5t-10 3.5H292q-15-1-15-16 0-6 4.5-11t10.5-5h162zm0 114q7 0 11.5 4.5t4.5 11-4.5 11.5-11.5 5H292q-15-1-15-16 0-7 4.5-11.5T292 444h162zm0 113q7 1 11.5 5.5t4.5 11-4.5 11T454 589H292q-6 0-10.5-4.5t-4.5-11 4.5-11T292 557h162zM188 699q23 15 39 45t16 57q0 51-35.5 86.5t-86 35.5-86-35.5T0 801q0-27 16-57t39-45V157q0-28 19.5-47.5t47-19.5 47 19.5T188 157v542zM87 407h69V157q0-20-17-30-8-5-20-5t-22 10-10 25v250zm61 460q21-12 36-37.5t15-41.5q0-25-15.5-25T168 779.5t-10.5 34-21.5 24-11 13 2 9.5q4 8 10.5 8t10.5-1z"></path></svg> 