<?xml version="1.0" encoding="UTF-8"?> <!-- Generator: Adobe Illustrator 25.4.1, SVG Export Plug-In . SVG Version: 6.00 Build 0) --> <svg xmlns="http://www.w3.org/2000/svg" xmlns:xlink="http://www.w3.org/1999/xlink" version="1.1" id="Capa_1" x="0px" y="0px" viewBox="0 0 1124 1008" style="enable-background:new 0 0 1124 1008;" xml:space="preserve"> <style type="text/css"> .st0{fill:#FFFFFF;} </style> <path class="st0" d="M1109,117c4,0,7.7,1.5,11,4.5s5,6.8,5,11.5v742c0,10.7-5.3,16-16,16h-72c-4,0-7.7-1.5-11-4.5 c-3.3-3-5-6.8-5-11.5v-70H440c-10.7,0-16-5.7-16-17v-35c-2,0.7-4,1-6,1H104v121c0,4.7-1.7,8.5-5,11.5s-7.3,4.5-12,4.5H16 c-4,0-7.7-1.5-11-4.5s-5-6.8-5-11.5V133c0-4.7,1.7-8.5,5-11.5s7-4.5,11-4.5h71c4.7,0,8.7,1.5,12,4.5s5,6.8,5,11.5v136h126 c38,0,70.3,13.5,97,40.5s40.3,59.2,41,96.5h50c4,0,7.7,1.7,11,5c3.3-3.3,7-5,11-5h581V133c0-4.7,1.7-8.5,5-11.5c3.3-3,7-4.5,11-4.5 H1109z M71,859V150H33v708L71,859z M104,302v104h231c0-28.7-10.3-53.2-31-73.5S258.7,302,230,302H104z M418,721c2,0,4,0.7,6,2V438 c-2,0.7-4,1-6,1H111v282H418z M457,439v333h58V439H457z M548,772h473V439H548V772z M1092,859V150h-38v708L1092,859z"></path> </svg> 