<?xml version="1.0" encoding="UTF-8"?> <!-- Generator: Adobe Illustrator 25.4.1, SVG Export Plug-In . SVG Version: 6.00 Build 0) --> <svg xmlns="http://www.w3.org/2000/svg" xmlns:xlink="http://www.w3.org/1999/xlink" version="1.1" id="Capa_1" x="0px" y="0px" viewBox="0 0 852 1008" style="enable-background:new 0 0 852 1008;" xml:space="preserve"> <style type="text/css"> .st0{fill:#FFFFFF;} </style> <path class="st0" d="M120.1,827.6c-8.5-3.2-14.3-9-17.6-17.7v-7.7c0.3-0.7,0.6-1.5,0.9-2.2c0.8-2,1.6-4.1,2.4-6.1l11.7-28.9 c14.1-34.8,28.6-70.8,43.1-106.2c2.5-6.2,3.2-11.8-2.1-18.9c-26.2-35.4-43.3-74.7-50.7-116.7c-1.5-8.2-2.6-16.7-3.6-24.9 c-0.5-3.8-1-7.5-1.5-11.3v-31.9c0.1-0.4,0.2-0.8,0.3-1.2c0.4-1.4,0.8-2.9,0.9-4.6c3.2-42.7,15.1-81.9,35.6-116.7 c26.7-45.4,61-82,102-108.8c39.7-26,86.8-43.4,140-52c7.8-1.2,15.8-2.1,23.5-2.9c3.6-0.4,7.2-0.8,10.9-1.2h33.4 c2.3,0.3,4.6,0.6,6.9,0.8c5.1,0.6,10.3,1.2,15.4,1.8c77.1,8.5,143.8,39,198.2,90.8c49,46.6,78.9,103,88.9,167.7 c1,6.5,1.8,13.2,2.6,19.6c0.4,3,0.7,6,1.1,8.9v26.9c-0.4,3.2-0.8,6.5-1.2,9.7c-0.8,7.1-1.7,14.4-2.8,21.5 c-6.5,42.3-22.7,82.4-48.1,119.2c-4.4,6.4-11.1,10.1-18.3,10.1c-4.3,0-8.6-1.4-12.3-3.9c-10.3-7.1-12.4-20-5.1-30.8 c21.1-31.2,34.2-62.7,40-96.3c11.3-64.9-2-125.2-39.5-179.3C632.3,273,572.4,234.1,496.7,218.7c-23.2-4.7-46.2-7.1-68.3-7.1 c-67.5,0-129.9,22.1-185.2,65.7c-51.9,40.9-83.3,93.3-93.4,155.8c-11.3,70.2,6.2,134.6,51.9,191.3c9.7,12,11.2,22.4,5.3,36 c-8.8,20.2-17.1,41-25.1,61.1c-3.3,8.2-6.5,16.4-9.8,24.6c-0.6,1.5-1.1,3-1.8,4.8c-0.3,1-0.7,2-1.2,3.3l-2.9,8.1l8-3.1 c1.1-0.4,2-0.8,2.9-1.1c1.7-0.6,3.1-1.2,4.6-1.8l22.4-9.9c28.6-12.6,58.1-25.6,87.2-38.5c3.8-1.7,7.4-2.5,11.1-2.5 c3.4,0,6.8,0.7,10.4,2.1c40,16,80.4,24.1,120,24.1c45.9,0,92.1-10.9,137.3-32.3c3.8-1.8,7.7-2.7,11.6-2.7c6.2,0,11.8,2.4,15.7,6.7 c4.1,4.4,5.9,10.6,5.3,17.3c-0.7,7.8-5.1,13.7-13.4,17.8c-30.7,15.3-63.3,25.9-96.9,31.6c-20.4,3.4-40.9,5.2-61,5.2 c-41.4,0-82.8-7.4-122.9-21.9c-1.4-0.5-3.1-0.8-4.9-0.8c-2.8,0-5.8,0.6-8.3,1.7c-44.6,19.5-89.9,39.5-133.6,58.8l-23.6,10.4 c-2.3,1-4.6,2.1-6.8,3.1l-2.4,1.1H120.1z"></path> <path class="st0" d="M454.3,643.2c-24.6,0-46.5-12.7-59.9-34.9c-9.4-15.5-11.9-32.5-7.6-50.6c6.2-26,12.9-52.4,19.4-78l3.2-12.5 c1.6-6.2,2.4-14-4.8-20.2c-3.4-2.9-7.2-4.4-11.3-4.4c-3.2,0-6.6,0.9-10.3,2.8l-0.2,0.1c-3,1.5-6.1,2.3-9.4,2.3 c-7.8,0-14.9-4.4-18.3-11.5l-5.3-10.8c-2.5-5.1-2.8-10.8-0.8-16.1c1.9-5.2,5.8-9.4,10.8-11.6c12.3-5.4,23.4-8.1,34.1-8.1 c8.2,0,16.1,1.5,24.2,4.6c33.1,12.7,51.7,48,43.2,82.2l-3.8,15.1c-6.2,24.9-12.6,50.7-19.2,76c-1.9,7.5-0.1,13.7,5.3,18.5 c3.4,2.9,7.1,4.4,11.2,4.4h0c2.7,0,5.4-0.7,8.1-2l0.2-0.1c2.5-1.2,5.2-1.8,8-1.8c7.1,0,13.5,4,16.7,10.4l6.9,14.1 c2.3,4.7,2.5,10,0.7,14.9c-1.9,4.9-5.7,8.8-10.6,10.8C474.6,641.1,464.3,643.2,454.3,643.2z"></path> <path class="st0" d="M440,350.4c-9.3,0-18-3.6-24.5-10c-6.4-6.4-9.8-14.9-9.8-24c0.1-18.6,15.3-33.8,33.9-33.9l0.2,0 c9.3,0,18.1,3.6,24.6,10.1c6.4,6.4,9.9,14.9,9.9,23.9c-0.1,18.6-15.3,33.7-34,33.8L440,350.4z"></path> </svg> 